<?xml version="1.0" standalone="no"?><!DOCTYPE svg PUBLIC "-//W3C//DTD SVG 1.1//EN" "http://www.w3.org/Graphics/SVG/1.1/DTD/svg11.dtd"><svg t="1613799458623" class="icon" viewBox="0 0 1024 1024" version="1.1" xmlns="http://www.w3.org/2000/svg" p-id="34336" xmlns:xlink="http://www.w3.org/1999/xlink" width="200" height="200"><defs><style type="text/css"></style></defs><path d="M760.24876 960.069993c-3.807643 2.015811-3.487673 2.655751 0.159985 0.799925a9.91907 9.91907 0 0 0 3.039715-1.951817c0-0.671937 0-0.671937-3.1997 1.151892z m7.67928-4.15961c-1.823829 1.503859-1.823829 1.503859 0.351967 0.511952a7.967253 7.967253 0 0 0 2.175796-1.503859c0-0.863919-0.511952-0.671937-2.527763 0.991907z m4.991532-3.007718c-1.823829 1.503859-1.823829 1.503859 0.351967 0.511952a7.871262 7.871262 0 0 0 2.175796-1.535856c0-0.799925-0.511952-0.63994-2.527763 1.023904z m5.055526-2.975721c-1.823829 1.503859-1.823829 1.503859 0.287973 0.479955 1.183889-0.63994 2.175796-1.311877 2.175796-1.503859 0-0.799925-0.511952-0.63994-2.463769 1.023904z m6.815361-4.511577c-3.487673 2.335781-4.703559 3.83964-1.503859 2.175796 2.143799-1.311877 5.791457-4.191607 5.151517-4.191607-1.375871 0.511952-2.527763 1.375871-3.679655 2.015811zM478.803145 0.351967c-2.335781 0.159985-9.343124 0.799925-15.486548 1.311877-145.522357 13.182764-281.669593 91.511421-367.965503 212.172109a506.44852 506.44852 0 0 0-90.359529 223.627035c-4.127613 28.15736-4.639565 36.47658-4.639565 74.649002 0 38.140424 0.511952 46.331656 4.639565 74.489016 27.869387 192.333969 164.68856 353.790832 350.143174 413.625223 33.372871 10.655001 68.345593 18.014311 108.181858 22.525888 15.486548 1.663844 82.45627 1.663844 97.942818 0 68.857545-7.67928 126.996094-24.669687 184.526701-54.010936 8.831172-4.47958 10.495016-5.663469 9.311127-6.655377a10907.457426 10907.457426 0 0 1-83.480174-111.829516l-81.81633-110.485641-102.486392-151.825767a13323.422929 13323.422929 0 0 0-103.318314-151.793769c-0.351967 0-0.799925 67.481674-0.991907 149.777958-0.351967 144.146486-0.351967 150.001937-2.175796 153.329625a18.302284 18.302284 0 0 1-8.831172 9.18314c-3.167703 1.503859-6.015436 1.823829-21.150017 1.823829h-17.310377l-4.511577-2.815736a19.038215 19.038215 0 0 1-6.655376-7.327313l-2.175796-4.511578 0.159985-200.653188 0.351967-200.653189 3.167703-3.999625a24.093741 24.093741 0 0 1 7.327313-5.983439c4.191607-2.015811 5.855451-2.335781 23.165828-2.335781 20.318095 0 23.67778 0.799925 29.021279 6.655376a19289.551605 19289.551605 0 0 1 123.476424 185.966566c66.521764 100.854545 157.32925 238.473643 201.965066 305.987313l81.17639 122.836484 3.999625-2.655751a523.022967 523.022967 0 0 0 105.110146-92.311346 509.872199 509.872199 0 0 0 120.5327-261.639471c4.127613-28.15736 4.639565-36.508577 4.639565-74.649001 0-38.172421-0.511952-46.331656-4.639565-74.489017C991.779054 245.352998 854.959881 83.896135 669.505267 24.029747a543.405056 543.405056 0 0 0-106.486017-22.301909c-9.695091-0.991907-75.864888-2.175796-84.184108-1.311877zM688.287506 309.986939a19.934131 19.934131 0 0 1 10.143049 11.646908c0.863919 2.687748 1.023904 58.330532 0.863919 183.662781l-0.351967 179.95113-31.645033-48.63544-31.837015-48.667438v-130.643752c0-84.69606 0.351967-132.179608 0.799925-134.515389a21.43799 21.43799 0 0 1 10.015061-12.638815c3.967628-2.015811 5.503484-2.175796 21.341999-2.175796 14.814611 0 17.310377 0.159985 20.638065 2.015811z" p-id="34337"></path></svg>