<?xml version="1.0" standalone="no"?><!DOCTYPE svg PUBLIC "-//W3C//DTD SVG 1.1//EN" "http://www.w3.org/Graphics/SVG/1.1/DTD/svg11.dtd"><svg t="1613799929078" class="icon" viewBox="0 0 1024 1024" version="1.1" xmlns="http://www.w3.org/2000/svg" p-id="1139" xmlns:xlink="http://www.w3.org/1999/xlink" width="200" height="200"><defs><style type="text/css"></style></defs><path d="M823.904 1022.176h-153.6a53.792 53.792 0 0 1-55.84-33.44l-0.128-0.352c-56.832-113.696-118.624-225.632-170.112-343.296-38.112-80.256-60.384-174.4-60.384-273.76 0-127.296 36.544-246.048 99.744-346.336l-1.6 2.688c7.072-12 22.176-26.656 33.76-26.656s25.312 16 31.584 28.416q232.288 464.64 464.992 929.632c23.136 44.416 12.448 62.624-38.624 63.104z m-621.792 0H44.384c-44.416 0-54.176-17.792-34.656-56.864q119.456-236.288 236.768-471.68c21.344-44.416 38.176-44.416 67.936-7.552a518.816 518.816 0 0 1 125.504 339.296c0 48.832-6.72 96.128-19.264 140.96l0.864-3.68c-14.688 56.416-22.688 59.936-79.52 59.936z" fill="#0052CC" p-id="1140"></path></svg>