<?xml version="1.0" standalone="no"?><!DOCTYPE svg PUBLIC "-//W3C//DTD SVG 1.1//EN" "http://www.w3.org/Graphics/SVG/1.1/DTD/svg11.dtd"><svg t="1613798970538" class="icon" viewBox="0 0 1024 1024" version="1.1" xmlns="http://www.w3.org/2000/svg" p-id="10049" xmlns:xlink="http://www.w3.org/1999/xlink" width="200" height="200"><defs><style type="text/css"></style></defs><path d="M917.504 643.072c-7.168-4.096-15.36-7.168-24.576-10.24V391.168c8.192-2.048 16.384-5.12 24.576-10.24 43.008-24.576 58.368-80.896 32.768-123.904-24.576-43.008-80.896-58.368-123.904-32.768-7.168 4.096-14.336 10.24-20.48 16.384L596.992 118.784c2.048-8.192 4.096-16.384 4.096-25.6 0-50.176-40.96-91.136-91.136-91.136s-91.136 40.96-91.136 91.136c0 9.216 1.024 17.408 4.096 25.6L212.992 240.64c-6.144-6.144-12.288-11.264-20.48-16.384-43.008-24.576-99.328-10.24-123.904 32.768s-10.24 99.328 32.768 123.904c7.168 4.096 15.36 7.168 24.576 10.24v241.664c-8.192 2.048-16.384 5.12-24.576 10.24-43.008 24.576-58.368 80.896-32.768 123.904 24.576 43.008 80.896 58.368 123.904 32.768 7.168-4.096 14.336-10.24 20.48-16.384l209.92 120.832c-2.048 8.192-4.096 16.384-4.096 25.6 0 50.176 40.96 91.136 91.136 91.136s91.136-40.96 91.136-91.136c0-10.24-2.048-19.456-5.12-28.672l208.896-120.832c6.144 7.168 13.312 13.312 22.528 18.432 43.008 24.576 99.328 10.24 123.904-32.768 24.576-43.008 10.24-98.304-33.792-122.88zM235.52 699.392c-2.048-8.192-5.12-16.384-9.216-23.552-4.096-7.168-10.24-14.336-15.36-20.48l274.432-475.136c8.192 2.048 16.384 4.096 25.6 4.096 9.216 0 17.408-1.024 25.6-4.096L809.984 655.36c-6.144 6.144-11.264 12.288-15.36 20.48-4.096 7.168-7.168 15.36-9.216 23.552H235.52z m549.888-421.888c-6.144 22.528-4.096 48.128 8.192 70.656 12.288 22.528 33.792 36.864 56.32 43.008v242.688c-1.024 0-2.048 1.024-3.072 1.024L572.416 158.72l2.048-2.048 210.944 120.832zM444.416 156.672l2.048 2.048-273.408 475.136c-1.024 0-2.048-1.024-3.072-1.024V390.144c22.528-6.144 44.032-20.48 56.32-43.008 12.288-22.528 15.36-47.104 8.192-70.656l209.92-119.808z m133.12 712.704c-16.384-18.432-40.96-29.696-67.584-29.696-25.6 0-49.152 10.24-65.536 27.648L234.496 746.496c0-1.024 0-2.048 1.024-3.072h548.864c0 2.048 1.024 4.096 2.048 6.144L577.536 869.376z" fill="#e535ab" p-id="10050"></path></svg>