<?xml version="1.0" standalone="no"?><!DOCTYPE svg PUBLIC "-//W3C//DTD SVG 1.1//EN" "http://www.w3.org/Graphics/SVG/1.1/DTD/svg11.dtd"><svg t="1613798725907" class="icon" viewBox="0 0 1024 1024" version="1.1" xmlns="http://www.w3.org/2000/svg" p-id="994" xmlns:xlink="http://www.w3.org/1999/xlink" width="200" height="200"><defs><style type="text/css"></style></defs><path d="M512 725.333333C236.8 725.333333 21.333333 631.466667 21.333333 512s215.466667-213.333333 490.666667-213.333333 490.666667 93.866667 490.666667 213.333333-215.466667 213.333333-490.666667 213.333333z m0-384c-268.8 0-448 87.466667-448 170.666667 0 83.2 179.2 170.666667 448 170.666667s448-87.466667 448-170.666667c0-83.2-179.2-170.666667-448-170.666667z" fill="#80DEEA" p-id="995"></path><path d="M322.133333 951.466667c-21.333333 0-38.4-4.266667-55.466666-14.933334-104.533333-59.733333-76.8-292.266667 59.733333-531.2 64-110.933333 142.933333-204.8 219.733333-264.533333 83.2-64 157.866667-83.2 209.066667-53.333333 53.333333 29.866667 72.533333 104.533333 59.733333 209.066666-12.8 98.133333-55.466667 213.333333-119.466666 324.266667-64 110.933333-142.933333 204.8-219.733334 264.533333-55.466667 42.666667-108.8 66.133333-153.6 66.133334zM701.866667 115.2c-34.133333 0-78.933333 19.2-128 57.6C501.333333 230.4 426.666667 320 364.8 426.666667c-134.4 232.533333-147.2 433.066667-76.8 473.6 36.266667 21.333333 96 2.133333 162.133333-49.066667C522.666667 793.6 597.333333 704 659.2 597.333333c61.866667-106.666667 102.4-215.466667 115.2-307.2 10.666667-85.333333-2.133333-145.066667-38.4-166.4-10.666667-4.266667-21.333333-8.533333-34.133333-8.533333z" fill="#80DEEA" p-id="996"></path><path d="M704 951.466667c-106.666667 0-260.266667-130.133333-375.466667-332.8C189.866667 379.733333 162.133333 147.2 266.666667 87.466667 371.2 27.733333 558.933333 166.4 697.6 405.333333c64 110.933333 106.666667 226.133333 119.466667 324.266667 14.933333 104.533333-6.4 177.066667-59.733334 209.066667-17.066667 8.533333-34.133333 12.8-53.333333 12.8zM288 123.733333c-70.4 40.533333-57.6 241.066667 76.8 473.6 134.4 232.533333 300.8 343.466667 371.2 302.933334 36.266667-21.333333 49.066667-81.066667 38.4-166.4-12.8-91.733333-53.333333-200.533333-115.2-307.2C524.8 194.133333 358.4 83.2 288 123.733333z" fill="#80DEEA" p-id="997"></path><path d="M512 512m-85.333333 0a85.333333 85.333333 0 1 0 170.666666 0 85.333333 85.333333 0 1 0-170.666666 0Z" fill="#80DEEA" p-id="998"></path></svg>