<?xml version="1.0" standalone="no"?><!DOCTYPE svg PUBLIC "-//W3C//DTD SVG 1.1//EN" "http://www.w3.org/Graphics/SVG/1.1/DTD/svg11.dtd"><svg t="1613799376458" class="icon" viewBox="0 0 1024 1024" version="1.1" xmlns="http://www.w3.org/2000/svg" p-id="32955" xmlns:xlink="http://www.w3.org/1999/xlink" width="200" height="200"><defs><style type="text/css"></style></defs><path d="M102.4 102.4v819.2h819.2V102.4H102.4z m361.472 444.768v302.752h-75.424v-303.104H281.952v-32.768l1.024-33.792c0.352-0.672 65.184-0.672 144.032-0.672l143.008 0.352 0.672 66.912h-106.848z m385.696 240.64c-12.96 34.144-45.408 57.344-90.464 64.864-13.984 2.4-47.456 2.048-62.464-0.672-32.768-5.792-64.16-22.176-83.296-43.36-7.52-8.192-22.176-30.048-21.152-31.744 0.352-0.672 3.744-2.72 7.52-4.768l30.368-17.408 23.552-13.664 4.768 7.168c6.816 10.592 21.856 24.928 31.072 29.696 26.272 13.664 62.112 11.936 79.872-4.096 7.52-6.816 10.592-13.984 10.592-24.576 0-9.568-1.024-13.664-6.144-20.832-6.496-9.216-19.456-16.736-56.32-32.768-42.336-18.08-60.416-29.344-77.152-47.456a106.752 106.752 0 0 1-22.528-40.96c-3.072-11.616-3.744-40.608-1.376-52.224 8.544-40.96 39.584-69.28 83.968-77.824 14.336-2.72 48.128-1.696 62.112 1.696 20.832 5.12 36.512 14.336 51.2 29.344 7.52 8.192 18.784 22.88 19.808 26.272 0.352 1.024-35.488 24.928-56.992 38.24-0.672 0.352-3.744-2.72-7.52-8.192-10.592-15.36-21.504-21.856-38.56-23.2-24.928-1.696-40.96 11.264-40.608 33.12 0 6.496 1.024 10.24 3.424 15.36 5.472 11.264 15.712 18.08 47.456 31.744 58.72 25.248 83.616 41.984 99.328 65.536 17.408 27.296 21.504 69.632 9.568 100.704z" fill="#007ACC" p-id="32956"></path><path d="M740.704 622.592c-31.744-13.664-41.984-20.48-47.456-31.744a28.48 28.48 0 0 1-3.424-15.36c-0.352-21.856 15.712-34.816 40.608-33.12 17.056 1.024 28 7.84 38.56 23.2 3.424 5.12 6.496 8.544 7.52 8.192 21.504-13.312 57.344-37.216 56.992-38.24-1.024-3.424-11.936-18.08-19.808-26.272a101.952 101.952 0 0 0-51.2-29.344c-13.984-3.424-47.776-4.448-62.112-1.696-44.384 8.544-75.424 36.864-83.968 77.824-2.4 11.616-1.696 40.608 1.376 52.224 3.744 13.984 12.96 30.72 22.528 40.96 16.736 18.08 34.816 29.344 77.152 47.456 36.864 16.032 49.824 23.552 56.32 32.768 5.12 7.168 6.144 11.264 6.144 20.832 0 10.592-3.072 17.76-10.592 24.576-17.76 15.712-53.6 17.76-79.872 4.096-9.216-4.768-24.224-19.104-31.072-29.696l-4.768-7.168-23.552 13.664-30.368 17.408a66.56 66.56 0 0 0-7.52 4.768c-1.024 1.696 13.664 23.2 21.152 31.744 19.104 21.152 50.528 37.536 83.296 43.36 15.008 2.72 48.48 3.072 62.464 0.672 45.408-7.52 77.472-30.72 90.464-64.864 11.936-31.392 7.84-73.376-9.568-100-15.36-24.224-40.608-40.96-99.328-66.208zM569.696 480.256l-143.008-0.352c-78.496 0-143.712 0-144.032 0.672l-1.024 33.792v32.768h106.496v302.752h75.424v-303.104h106.496l-0.352-33.44v-33.12z" fill="#FFFFFF" p-id="32957"></path></svg>